<svg width="96" height="96" viewBox="0 0 96 96" fill="none" xmlns="http://www.w3.org/2000/svg">
<circle cx="48.5" cy="48.5" r="35" fill="white"/>
<path d="M41.2 9.1C29.8 11 18.3 19.6 13 30.2C3 49.7 10.9 74 30.3 83.5C54.3 95.2 82.2 81 87.1 54.6C91.9 28.2 68.1 4.6 41.2 9.1ZM52 32V42H48H44V32V22H48H52V32ZM36 32.8C36 35.6 35.2 39.2 34 41.5C31.4 46.6 31.5 49.5 34.3 55C36.7 59.8 43.1 64 48 64C52.3 63.9 58.8 60.3 61 56.8C64.2 51.5 64.5 47.4 62.1 41.6C60 36.5 59.2 28 60.9 28C62.9 28 67 32.4 69.4 37.2C77.4 53.2 65.9 72 48 72C30.1 72 18.6 53.2 26.6 37.2C29 32.4 33.1 28 35.1 28C35.6 28 36 30.2 36 32.8Z" fill="url(#paint0_linear)"/>
<defs>
<linearGradient id="paint0_linear" x1="18" y1="25" x2="74" y2="77" gradientUnits="userSpaceOnUse">
<stop stop-color="#F34B57"/>
<stop offset="1" stop-color="#E62232"/>
</linearGradient>
</defs>
</svg>
